<?xml version="1.0" encoding="UTF-8" standalone="no"?>
<!-- Created with Inkscape (http://www.inkscape.org/) -->

<svg
   width="180"
   height="130"
   viewBox="0 0 47.624999 34.395834"
   version="1.1"
   id="svg1"
   xml:space="preserve"
   inkscape:version="1.4 (86a8ad7, 2024-10-11)"
   sodipodi:docname="tips.svg"
   xmlns:inkscape="http://www.inkscape.org/namespaces/inkscape"
   xmlns:sodipodi="http://sodipodi.sourceforge.net/DTD/sodipodi-0.dtd"
   xmlns="http://www.w3.org/2000/svg"
   xmlns:svg="http://www.w3.org/2000/svg"><sodipodi:namedview
     id="namedview1"
     pagecolor="#ffffff"
     bordercolor="#000000"
     borderopacity="0.25"
     inkscape:showpageshadow="2"
     inkscape:pageopacity="0.0"
     inkscape:pagecheckerboard="0"
     inkscape:deskcolor="#d1d1d1"
     inkscape:document-units="mm"
     inkscape:zoom="2.8222222"
     inkscape:cx="119.05512"
     inkscape:cy="58.818898"
     inkscape:window-width="1920"
     inkscape:window-height="1005"
     inkscape:window-x="-9"
     inkscape:window-y="-9"
     inkscape:window-maximized="1"
     inkscape:current-layer="layer1" /><defs
     id="defs1"><inkscape:path-effect
       effect="fillet_chamfer"
       id="path-effect2"
       is_visible="true"
       lpeversion="1"
       nodesatellites_param="F,0,0,1,0,0.39687499,0,1 @ F,0,0,1,0,0.39687499,0,1 @ F,0,0,1,0,0.39687499,0,1 @ F,0,0,1,0,0.39687499,0,1 @ F,0,0,1,0,0.39687499,0,1 @ F,0,0,1,0,0.39687499,0,1"
       radius="1.5"
       unit="px"
       method="auto"
       mode="F"
       chamfer_steps="1"
       flexible="false"
       use_knot_distance="true"
       apply_no_radius="true"
       apply_with_radius="true"
       only_selected="false"
       hide_knots="false" /><inkscape:path-effect
       effect="fillet_chamfer"
       id="path-effect1"
       is_visible="true"
       lpeversion="1"
       nodesatellites_param="F,0,0,1,0,0,0,1 @ F,0,0,1,0,0,0,1 @ F,0,0,1,0,0,0,1 @ F,0,0,1,0,0,0,1 @ F,0,0,1,0,0,0,1 @ F,0,0,1,0,0,0,1"
       radius="0"
       unit="px"
       method="auto"
       mode="F"
       chamfer_steps="1"
       flexible="false"
       use_knot_distance="true"
       apply_no_radius="true"
       apply_with_radius="true"
       only_selected="false"
       hide_knots="false" /><clipPath
       clipPathUnits="userSpaceOnUse"
       id="clipPath2"><path
         id="path2"
         style="fill:#000000;stroke:none;stroke-width:0.399999"
         inkscape:transform-center-x="-0.27562645"
         inkscape:transform-center-y="-0.181046"
         d="M 3.6281175,27.114924 0.3437355,25.219385 A 0.68728094,0.68728094 59.995426 0 1 0,24.624127 v -3.790861 a 0.68728101,0.68728101 120.00457 0 1 0.34373548,-0.595258 l 3.28438302,-1.89554 a 0.68766095,0.68766095 3.1226265e-6 0 1 0.687471,0 l 3.284382,1.89554 a 0.68728126,0.68728126 59.995426 0 1 0.3437356,0.595258 l 8e-7,3.790861 a 0.6872806,0.6872806 120.00457 0 1 -0.3437354,0.595258 l -3.284384,1.895539 a 0.68766134,0.68766134 6.2452501e-6 0 1 -0.687471,0 z"
         sodipodi:nodetypes="ccccccc"
         inkscape:path-effect="#path-effect2"
         inkscape:original-d="M 3.971853,27.313307 0,25.021002 v -4.584611 l 3.971854,-2.292306 3.971853,2.292306 1e-6,4.584611 z"
         transform="translate(10.58023,-8.1766135)" /></clipPath></defs><g
     inkscape:label="Слой 1"
     inkscape:groupmode="layer"
     id="layer1"><rect
       style="fill:#1f2124;fill-opacity:1;stroke:none;stroke-width:0.4"
       id="rect2"
       width="47.625"
       height="34.395832"
       x="0"
       y="2.220446e-16"
       rx="3.7123106"
       ry="3.7123106" /><g
       id="g4"
       transform="matrix(1.5128262,0,0,1.5128262,-2.204958,0.08416117)"
       style="stroke-width:0.661014"><circle
         style="fill:#b3b075;fill-opacity:1;stroke-width:0.462711"
         id="path2-7"
         cx="17.197916"
         cy="11.31244"
         r="7.138238" /><g
         id="text2"
         transform="scale(0.97286611,1.0278907)"
         style="stroke-width:0.661014"><path
           id="path3-11"
           style="-inkscape-font-specification:'Arial, Normal';fill:#1f2124;fill-opacity:1;stroke-width:0.661014"
           d="m 17.740257,6.2108806 c -0.854394,0 -1.556771,0.2322964 -2.088058,0.6993148 C 15.124584,7.3777566 14.810255,8.0519416 14.70511,8.914127 L 14.69342,9.01367 h 1.338036 v 0 c 0.09673,-0.6166601 0.313993,-0.9933314 0.60926,-1.2694248 0.299151,-0.2797255 0.664059,-0.4182817 1.117066,-0.4182817 0.467951,0 0.853314,0.1542792 1.173902,0.4670477 0.321953,0.3101744 0.476466,0.6576672 0.476466,1.0643059 0,0.222907 -0.05294,0.4241789 -0.159885,0.6113348 -0.10353,0.1811768 -0.350902,0.4525027 -0.734618,0.7913171 -0.384926,0.339396 -0.65139,0.597072 -0.806858,0.78277 -0.207503,0.24985 -0.361415,0.500597 -0.456813,0.752102 h 0.0021 c -0.129255,0.331754 -0.193348,0.721645 -0.193348,1.167871 0,0.07603 0.0016,0.187527 0.0058,0.336335 l 0.0037,0.09753 h 1.26367 l 0.0021,-0.09954 c 0.0082,-0.441296 0.04082,-0.75885 0.08977,-0.939626 0.0507,-0.187189 0.126905,-0.35018 0.230531,-0.492185 0.100488,-0.137705 0.336892,-0.375719 0.697436,-0.695293 0.544203,-0.481889 0.913504,-0.892217 1.109098,-1.2442872 0.193575,-0.3484353 0.291085,-0.7310216 0.291085,-1.1422309 0,-0.7097341 -0.279558,-1.3244333 -0.824387,-1.8224415 -0.548026,-0.50093 -1.283304,-0.7500918 -2.187388,-0.7500918 z m -0.742055,7.9493644 v 1.4665 h 1.466581 v -1.4665 z"
           sodipodi:nodetypes="scccccsscssccccscccccscssssccccc" /></g></g></g></svg>
