<?xml version="1.0" encoding="UTF-8" standalone="no"?>
<!-- Created with Inkscape (http://www.inkscape.org/) -->

<svg
   width="130"
   height="105"
   viewBox="0 0 34.395833 27.78125"
   version="1.1"
   id="svg1"
   xml:space="preserve"
   sodipodi:docname="hint-2.svg"
   inkscape:version="1.4 (86a8ad7, 2024-10-11)"
   xmlns:inkscape="http://www.inkscape.org/namespaces/inkscape"
   xmlns:sodipodi="http://sodipodi.sourceforge.net/DTD/sodipodi-0.dtd"
   xmlns="http://www.w3.org/2000/svg"
   xmlns:svg="http://www.w3.org/2000/svg"><sodipodi:namedview
     id="namedview1"
     pagecolor="#ffffff"
     bordercolor="#000000"
     borderopacity="0.25"
     inkscape:showpageshadow="2"
     inkscape:pageopacity="0.0"
     inkscape:pagecheckerboard="0"
     inkscape:deskcolor="#d1d1d1"
     inkscape:document-units="mm"
     inkscape:zoom="5.3336054"
     inkscape:cx="39.372991"
     inkscape:cy="51.184889"
     inkscape:window-width="1920"
     inkscape:window-height="1005"
     inkscape:window-x="-9"
     inkscape:window-y="-9"
     inkscape:window-maximized="1"
     inkscape:current-layer="layer1" /><defs
     id="defs1"><inkscape:path-effect
       effect="fillet_chamfer"
       id="path-effect1"
       is_visible="true"
       lpeversion="1"
       nodesatellites_param="F,0,1,1,0,5.5562499,0,1 @ F,0,0,1,0,0,0,1 @ F,0,0,1,0,0,0,1 @ F,0,1,1,0,5.5562499,0,1"
       radius="21"
       unit="px"
       method="auto"
       mode="F"
       chamfer_steps="1"
       flexible="false"
       use_knot_distance="true"
       apply_no_radius="true"
       apply_with_radius="true"
       only_selected="true"
       hide_knots="false" /></defs><g
     inkscape:label="Слой 1"
     inkscape:groupmode="layer"
     id="layer1"><path
       id="path1"
       style="display:inline;fill:#1f2124;fill-opacity:1;stroke-width:0.7"
       d="M 6.3500803,5.3415741 -0.07544747,27.78125 H 34.395833 L 27.970305,5.3415741 A 7.3705674,7.3705674 37.010554 0 0 20.884513,0 H 13.435872 A 7.3705674,7.3705674 142.98945 0 0 6.3500803,5.3415741 Z"
       sodipodi:nodetypes="ccccc" /><circle
       style="fill:#5fde82;fill-opacity:1;stroke-width:0.700001"
       id="path2"
       cx="17.197916"
       cy="11.31244"
       r="7.138238" /><g
       id="text2"
       transform="scale(0.97286611,1.0278907)"><path
         id="path3"
         style="-inkscape-font-specification:'Arial, Normal';fill:#1f2124;fill-opacity:1"
         d="m 17.740257,6.2108806 c -0.854394,0 -1.556771,0.2322964 -2.088058,0.6993148 -0.527615,0.4675612 -0.841944,1.1417462 -0.947089,2.0039316 l -0.01169,0.099543 h 1.338036 v 0 c 0.09673,-0.6166601 0.313993,-0.9933314 0.60926,-1.2694248 0.299151,-0.2797255 0.664059,-0.4182817 1.117066,-0.4182817 0.467951,0 0.853314,0.1542792 1.173902,0.4670477 0.321953,0.3101744 0.476466,0.6576672 0.476466,1.0643059 0,0.222907 -0.05294,0.4241789 -0.159885,0.6113348 -0.10353,0.1811768 -0.350902,0.4525027 -0.734618,0.7913171 -0.384926,0.339396 -0.65139,0.597072 -0.806858,0.78277 -0.207503,0.24985 -0.361415,0.500597 -0.456813,0.752102 h 0.0021 c -0.129255,0.331754 -0.193348,0.721645 -0.193348,1.167871 0,0.07603 0.0016,0.187527 0.0058,0.336335 l 0.0037,0.09753 h 1.26367 l 0.0021,-0.09954 c 0.0082,-0.441296 0.04082,-0.75885 0.08977,-0.939626 0.0507,-0.187189 0.126905,-0.35018 0.230531,-0.492185 0.100488,-0.137705 0.336892,-0.375719 0.697436,-0.695293 0.544203,-0.481889 0.913504,-0.892217 1.109098,-1.2442872 0.193575,-0.3484353 0.291085,-0.7310216 0.291085,-1.1422309 0,-0.7097341 -0.279558,-1.3244333 -0.824387,-1.8224415 -0.548026,-0.50093 -1.283304,-0.7500918 -2.187388,-0.7500918 z m -0.742055,7.9493644 v 1.4665 h 1.466581 v -1.4665 z"
         sodipodi:nodetypes="scccccsscssccccscccccscssssccccc" /></g></g></svg>
